<svg width="28" height="16" viewBox="0 0 28 16" fill="none" xmlns="http://www.w3.org/2000/svg">
<path d="M12.2572 9.2149C12.1424 8.99798 12.0286 8.68855 11.9861 8.56095L10.1997 9.35846L8.82794 9.78911L14.0596 7.14139C13.4269 6.42363 12.1488 4.95941 12.0977 4.84457C12.0467 4.72973 12.002 4.29694 11.9861 4.09491C12.0286 4.22251 12.1424 4.55108 12.2572 4.84457C12.3721 5.13805 13.6661 6.42363 14.2988 7.02974C15.0538 6.62566 16.6084 5.79838 16.7871 5.72182C16.9657 5.64526 17.2656 5.20079 17.3932 4.98812C17.3772 5.09445 17.2815 5.39006 17.0263 5.72182C16.7711 6.05359 15.2399 6.87023 14.5062 7.23709L18.5256 11.4798L16.0693 9.35846C15.8779 9.54986 15.4345 9.96775 15.192 10.1081C14.889 10.2836 13.9366 15.276 12.9431 15.276C12.4327 15.276 12.4965 10.7621 12.5443 10.2517C12.5922 9.74126 12.4008 9.48606 12.2572 9.2149Z" fill="#EFEFEF"/>
<path d="M17.0901 6.14324C16.1012 6.5739 15.4472 7.4671 15.4313 7.59471C15.5217 7.71699 15.8173 8.07959 16.2766 8.55171C16.8508 9.14187 17.9354 9.66822 19.0041 10.2105C20.0728 10.7528 21.0936 10.5614 21.285 10.4976C21.4381 10.4466 21.3488 10.1999 21.285 10.0829C21.5827 10.285 22.3951 10.756 23.2628 11.024C24.1305 11.2919 24.8153 11.1356 25.0492 11.024C24.3953 10.5561 22.9693 9.54062 22.4972 9.22162C22.0251 8.90262 20.5672 8.40816 19.8973 8.20081C20.0249 8.16359 20.4811 8.06364 21.285 7.96156C22.2898 7.83396 23.3744 7.06835 23.4223 6.90885C23.4606 6.78125 23.1086 6.85568 22.9278 6.90885C22.997 6.88227 23.4829 6.72702 24.8738 6.31869C26.2646 5.91037 27.5374 4.71305 28 4.16543C26.9739 4.11226 24.5229 4.03782 22.9278 4.16543C20.9341 4.32493 18.079 5.71259 17.0901 6.14324Z" fill="#EFEFEF"/>
<path d="M11.7492 5.24271C12.6249 5.87247 13.0755 6.88363 13.0641 7.01173C12.9499 7.11217 12.5844 7.40417 12.0357 7.76864C11.3498 8.22423 10.1785 8.50968 9.01946 8.81409C7.86038 9.1185 6.90301 8.71585 6.72939 8.61307C6.5905 8.53085 6.7299 8.30858 6.81697 8.20772C6.48328 8.34233 5.58973 8.63121 4.68503 8.7099C3.78032 8.7886 3.14398 8.4912 2.9389 8.33267C3.67691 8.01344 5.28513 7.32197 5.81397 7.10985C6.34281 6.89774 7.87219 6.72229 8.57078 6.66108C8.45391 6.59775 8.02914 6.40372 7.26493 6.13419C6.30968 5.79727 5.4112 4.81989 5.39811 4.65388C5.38764 4.52108 5.71595 4.66816 5.88141 4.7583C5.81947 4.71772 5.37726 4.46335 4.104 3.77054C2.83074 3.07772 1.83946 1.63861 1.50297 1.00566C2.51719 1.17038 4.92864 1.6152 6.46074 2.07674C8.37586 2.65367 10.8735 4.61294 11.7492 5.24271Z" fill="#EFEFEF"/>
</svg>
